<svg width="1990" height="588" viewBox="0 0 1990 588" fill="none" xmlns="http://www.w3.org/2000/svg">
<g clip-path="url(#clip0_3011_7)">
<path d="M1260.79 103H1232.86V60.5562L1207.91 103H1187.08L1162.17 60.5562V103H1134.24V36.4351H1167.41L1197.51 83.9814L1227.57 36.4351H1260.79V103ZM1380 103H1351.7L1345.44 92.0991H1303.46L1297.2 103H1268.9L1311.49 36.4814H1337.42L1380 103ZM1336.03 75.6318L1324.48 55.4536L1312.88 75.6318H1336.03ZM1330.32 30.4512H1318.63L1324.66 13.9375H1344.14L1330.32 30.4512ZM1446.47 107.778C1443.84 107.097 1441.45 105.536 1439.28 103.093C1434.71 103.928 1429.49 104.345 1423.65 104.345C1407.2 104.345 1395.09 100.959 1387.33 94.1865C1380.46 88.1872 1377.03 80.0076 1377.03 69.6479C1377.03 59.3192 1380.46 51.1551 1387.33 45.1558C1395.09 38.3833 1407.2 34.9971 1423.65 34.9971C1440.1 34.9971 1452.21 38.3833 1459.97 45.1558C1466.84 51.1551 1470.27 59.3192 1470.27 69.6479C1470.27 81.7394 1465.61 90.8158 1456.31 96.877C1458.66 98.6087 1460.88 99.7839 1462.99 100.402L1446.47 107.778ZM1423.65 86.4863C1425.01 86.4863 1426.28 86.409 1427.45 86.2544C1425.66 83.7804 1423.76 81.8631 1421.75 80.5024L1429.82 75.8638C1432.32 76.7297 1435.11 78.4769 1438.17 81.1055C1440.92 77.9512 1442.3 74.132 1442.3 69.6479C1442.3 65.4113 1441.03 61.7467 1438.49 58.6543C1435.34 54.7887 1430.39 52.856 1423.65 52.856C1416.91 52.856 1411.94 54.7887 1408.76 58.6543C1406.22 61.7467 1404.96 65.4113 1404.96 69.6479C1404.96 73.9155 1406.22 77.5955 1408.76 80.688C1411.94 84.5535 1416.91 86.4863 1423.65 86.4863ZM1520.78 104.438C1504.55 104.438 1493.12 101.067 1486.5 94.3257C1480.94 88.6665 1478.15 80.487 1478.15 69.7871V36.4814H1506.08V69.7871C1506.08 74.4258 1506.87 78.0903 1508.44 80.7808C1510.7 84.6463 1514.82 86.5791 1520.78 86.5791C1526.81 86.5791 1530.94 84.6463 1533.17 80.7808C1534.75 77.9976 1535.53 74.333 1535.53 69.7871V36.4814H1563.46V70.1582C1563.46 80.6107 1560.69 88.6665 1555.16 94.3257C1548.51 101.067 1537.05 104.438 1520.78 104.438ZM1603.03 103H1575.1V36.4351H1603.03V103ZM1716.63 103H1683.42L1645.8 57.9585V103H1617.87V36.4351H1651.08L1688.7 81.2446V36.4351H1716.63V103ZM1835.89 103H1807.59L1801.33 92.0991H1759.35L1753.09 103H1724.79L1767.38 36.4814H1793.31L1835.89 103ZM1791.91 75.6318L1780.36 55.4536L1768.77 75.6318H1791.91ZM1874.11 104.438C1865.11 104.438 1857.86 103.479 1852.36 101.562C1846.85 99.6138 1842.66 96.9543 1839.79 93.5835C1836.91 90.1818 1834.98 86.2699 1833.99 81.8477H1863.63C1865.82 85.002 1869.32 86.5791 1874.11 86.5791C1878.9 86.5791 1882.4 85.002 1884.59 81.8477C1884.78 81.5384 1884.87 81.2601 1884.87 81.0127C1884.87 80.1777 1883.76 79.5592 1881.53 79.1572C1879.34 78.7243 1876.04 78.3996 1871.65 78.1831C1866.12 77.9357 1860.3 77.3481 1854.21 76.4204C1840.64 74.3175 1833.85 68.8594 1833.85 60.0459C1833.85 59.3037 1833.89 58.5151 1833.99 57.6802C1834.98 53.258 1836.91 49.3615 1839.79 45.9907C1842.66 42.589 1846.85 39.9295 1852.36 38.0122C1857.86 36.064 1865.11 35.0898 1874.11 35.0898C1883.11 35.0898 1890.36 36.064 1895.87 38.0122C1901.37 39.9295 1905.56 42.589 1908.44 45.9907C1911.31 49.3615 1913.25 53.258 1914.24 57.6802H1884.59C1882.4 54.5259 1878.9 52.9487 1874.11 52.9487C1869.32 52.9487 1865.82 54.5259 1863.63 57.6802C1863.47 57.9276 1863.4 58.1595 1863.4 58.376C1863.4 59.1182 1864.45 59.6748 1866.55 60.0459C1868.68 60.3861 1871.81 60.6799 1875.92 60.9272C1880.06 61.1746 1884.47 61.5767 1889.14 62.1333C1893.81 62.6899 1898.17 63.6641 1902.22 65.0557C1906.3 66.4163 1909.49 68.4419 1911.78 71.1323C1913.57 73.2043 1914.47 75.8328 1914.47 79.0181C1914.47 79.9149 1914.39 80.8581 1914.24 81.8477C1913.25 86.2699 1911.31 90.1818 1908.44 93.5835C1905.56 96.9543 1901.37 99.6138 1895.87 101.562C1890.36 103.479 1883.11 104.438 1874.11 104.438Z" fill="#DB6E0E"/>
<path d="M116.41 559L87.7197 492.5H104.345L129.425 551.4H119.64L145.1 492.5H160.395L131.61 559H116.41ZM263.384 560.14C253.947 560.14 246.569 557.512 241.249 552.255C235.929 546.998 233.269 539.493 233.269 529.74V492.5H248.659V529.17C248.659 535.503 249.957 540.063 252.554 542.85C255.15 545.637 258.792 547.03 263.479 547.03C268.165 547.03 271.807 545.637 274.404 542.85C277 540.063 278.299 535.503 278.299 529.17V492.5H293.499V529.74C293.499 539.493 290.839 546.998 285.519 552.255C280.199 557.512 272.82 560.14 263.384 560.14ZM375.207 559V492.5H390.597V546.46H423.942V559H375.207ZM529.752 560.14C524.622 560.14 519.841 559.317 515.407 557.67C511.037 555.96 507.237 553.553 504.007 550.45C500.777 547.347 498.244 543.705 496.407 539.525C494.634 535.345 493.747 530.753 493.747 525.75C493.747 520.747 494.634 516.155 496.407 511.975C498.244 507.795 500.777 504.153 504.007 501.05C507.301 497.947 511.132 495.572 515.502 493.925C519.872 492.215 524.654 491.36 529.847 491.36C535.611 491.36 540.804 492.373 545.427 494.4C550.114 496.363 554.041 499.277 557.207 503.14L547.327 512.26C545.047 509.663 542.514 507.732 539.727 506.465C536.941 505.135 533.901 504.47 530.607 504.47C527.504 504.47 524.654 504.977 522.057 505.99C519.461 507.003 517.212 508.46 515.312 510.36C513.412 512.26 511.924 514.508 510.847 517.105C509.834 519.702 509.327 522.583 509.327 525.75C509.327 528.917 509.834 531.798 510.847 534.395C511.924 536.992 513.412 539.24 515.312 541.14C517.212 543.04 519.461 544.497 522.057 545.51C524.654 546.523 527.504 547.03 530.607 547.03C533.901 547.03 536.941 546.397 539.727 545.13C542.514 543.8 545.047 541.805 547.327 539.145L557.207 548.265C554.041 552.128 550.114 555.073 545.427 557.1C540.804 559.127 535.579 560.14 529.752 560.14ZM624.154 559L653.794 492.5H668.994L698.729 559H682.579L658.259 500.29H664.339L639.924 559H624.154ZM638.974 544.75L643.059 533.065H677.259L681.439 544.75H638.974ZM772.129 559V492.5H784.859L824.094 540.38H817.919V492.5H833.119V559H820.484L781.154 511.12H787.329V559H772.129ZM915.352 559V492.5H930.742V559H915.352ZM1008.75 559V549.025L1049.88 499.435L1051.78 505.04H1009.51V492.5H1065.46V502.475L1024.42 552.065L1022.52 546.46H1066.89V559H1008.75ZM1134.52 559L1164.16 492.5H1179.36L1209.09 559H1192.94L1168.62 500.29H1174.7L1150.29 559H1134.52ZM1149.34 544.75L1153.42 533.065H1187.62L1191.8 544.75H1149.34ZM1282.49 559V492.5H1312.7C1319.92 492.5 1326.29 493.893 1331.8 496.68C1337.31 499.403 1341.62 503.235 1344.72 508.175C1347.82 513.115 1349.37 518.973 1349.37 525.75C1349.37 532.463 1347.82 538.322 1344.72 543.325C1341.62 548.265 1337.31 552.128 1331.8 554.915C1326.29 557.638 1319.92 559 1312.7 559H1282.49ZM1297.88 546.365H1311.94C1316.38 546.365 1320.21 545.542 1323.44 543.895C1326.73 542.185 1329.27 539.778 1331.04 536.675C1332.88 533.572 1333.79 529.93 1333.79 525.75C1333.79 521.507 1332.88 517.865 1331.04 514.825C1329.27 511.722 1326.73 509.347 1323.44 507.7C1320.21 505.99 1316.38 505.135 1311.94 505.135H1297.88V546.365ZM1459.78 560.14C1454.52 560.14 1449.65 559.285 1445.15 557.575C1440.72 555.865 1436.85 553.458 1433.56 550.355C1430.33 547.252 1427.8 543.61 1425.96 539.43C1424.19 535.25 1423.3 530.69 1423.3 525.75C1423.3 520.81 1424.19 516.25 1425.96 512.07C1427.8 507.89 1430.36 504.248 1433.66 501.145C1436.95 498.042 1440.81 495.635 1445.25 493.925C1449.68 492.215 1454.49 491.36 1459.69 491.36C1464.94 491.36 1469.76 492.215 1474.13 493.925C1478.56 495.635 1482.39 498.042 1485.62 501.145C1488.91 504.248 1491.48 507.89 1493.32 512.07C1495.15 516.187 1496.07 520.747 1496.07 525.75C1496.07 530.69 1495.15 535.282 1493.32 539.525C1491.48 543.705 1488.91 547.347 1485.62 550.45C1482.39 553.49 1478.56 555.865 1474.13 557.575C1469.76 559.285 1464.97 560.14 1459.78 560.14ZM1459.69 547.03C1462.66 547.03 1465.39 546.523 1467.86 545.51C1470.39 544.497 1472.61 543.04 1474.51 541.14C1476.41 539.24 1477.86 536.992 1478.88 534.395C1479.95 531.798 1480.49 528.917 1480.49 525.75C1480.49 522.583 1479.95 519.702 1478.88 517.105C1477.86 514.508 1476.41 512.26 1474.51 510.36C1472.67 508.46 1470.48 507.003 1467.95 505.99C1465.42 504.977 1462.66 504.47 1459.69 504.47C1456.71 504.47 1453.95 504.977 1451.42 505.99C1448.95 507.003 1446.77 508.46 1444.87 510.36C1442.97 512.26 1441.48 514.508 1440.4 517.105C1439.39 519.702 1438.88 522.583 1438.88 525.75C1438.88 528.853 1439.39 531.735 1440.4 534.395C1441.48 536.992 1442.93 539.24 1444.77 541.14C1446.67 543.04 1448.89 544.497 1451.42 545.51C1453.95 546.523 1456.71 547.03 1459.69 547.03ZM1574.14 559V492.5H1602.92C1608.87 492.5 1614 493.482 1618.31 495.445C1622.62 497.345 1625.94 500.1 1628.29 503.71C1630.63 507.32 1631.8 511.627 1631.8 516.63C1631.8 521.57 1630.63 525.845 1628.29 529.455C1625.94 533.002 1622.62 535.725 1618.31 537.625C1614 539.525 1608.87 540.475 1602.92 540.475H1582.69L1589.53 533.73V559H1574.14ZM1616.41 559L1599.79 534.87H1616.22L1633.04 559H1616.41ZM1589.53 535.44L1582.69 528.22H1602.07C1606.82 528.22 1610.36 527.207 1612.71 525.18C1615.05 523.09 1616.22 520.24 1616.22 516.63C1616.22 512.957 1615.05 510.107 1612.71 508.08C1610.36 506.053 1606.82 505.04 1602.07 505.04H1582.69L1589.53 497.725V535.44ZM1701.75 559L1731.39 492.5H1746.59L1776.33 559H1760.18L1735.86 500.29H1741.94L1717.52 559H1701.75ZM1716.57 544.75L1720.66 533.065H1754.86L1759.04 544.75H1716.57ZM1871.58 560.14C1866.26 560.14 1861.16 559.443 1856.28 558.05C1851.41 556.593 1847.48 554.725 1844.5 552.445L1849.73 540.855C1852.58 542.882 1855.94 544.56 1859.8 545.89C1863.73 547.157 1867.68 547.79 1871.67 547.79C1874.71 547.79 1877.15 547.505 1878.99 546.935C1880.89 546.302 1882.28 545.447 1883.17 544.37C1884.06 543.293 1884.5 542.058 1884.5 540.665C1884.5 538.892 1883.8 537.498 1882.41 536.485C1881.02 535.408 1879.18 534.553 1876.9 533.92C1874.62 533.223 1872.09 532.59 1869.3 532.02C1866.58 531.387 1863.82 530.627 1861.03 529.74C1858.31 528.853 1855.81 527.713 1853.53 526.32C1851.25 524.927 1849.38 523.09 1847.92 520.81C1846.53 518.53 1845.83 515.617 1845.83 512.07C1845.83 508.27 1846.85 504.818 1848.87 501.715C1850.96 498.548 1854.07 496.047 1858.18 494.21C1862.36 492.31 1867.59 491.36 1873.86 491.36C1878.04 491.36 1882.16 491.867 1886.21 492.88C1890.26 493.83 1893.84 495.287 1896.94 497.25L1892.19 508.935C1889.09 507.162 1885.99 505.863 1882.88 505.04C1879.78 504.153 1876.74 503.71 1873.76 503.71C1870.79 503.71 1868.35 504.058 1866.45 504.755C1864.55 505.452 1863.19 506.37 1862.36 507.51C1861.54 508.587 1861.13 509.853 1861.13 511.31C1861.13 513.02 1861.83 514.413 1863.22 515.49C1864.61 516.503 1866.45 517.327 1868.73 517.96C1871.01 518.593 1873.51 519.227 1876.23 519.86C1879.02 520.493 1881.78 521.222 1884.5 522.045C1887.29 522.868 1889.82 523.977 1892.1 525.37C1894.38 526.763 1896.22 528.6 1897.61 530.88C1899.07 533.16 1899.79 536.042 1899.79 539.525C1899.79 543.262 1898.75 546.682 1896.66 549.785C1894.57 552.888 1891.43 555.39 1887.25 557.29C1883.14 559.19 1877.91 560.14 1871.58 560.14Z" fill="#B1AEAE"/>
<path d="M240.298 51.264C336.242 51.264 391.45 99.504 391.45 183.12C391.45 271.56 336.242 323.016 240.298 323.016H173.298V427H75.2097V51.264H240.298ZM235.474 244.76C275.138 244.76 298.186 224.392 298.186 186.336C298.186 149.352 275.138 129.52 235.474 129.52H173.298V244.76H235.474ZM567.09 133.808C668.394 133.808 719.85 201.88 713.418 307.472H511.882C520.994 340.168 545.114 358.392 577.81 358.392C602.466 358.392 626.586 348.208 645.882 328.912L695.73 378.76C666.25 411.992 622.834 430.216 569.234 430.216C474.362 430.216 415.938 371.792 415.938 283.352C415.938 193.304 476.506 133.808 567.09 133.808ZM509.738 256.552H621.226C621.226 223.32 599.786 200.808 567.626 200.808C536.538 200.808 516.17 223.32 509.738 256.552ZM765.163 29.288H860.571V427H765.163V29.288ZM983.968 3.55999C1012.91 3.55999 1034.35 24.464 1034.35 54.48C1034.35 83.96 1012.91 105.4 983.968 105.4C954.488 105.4 933.584 83.96 933.584 54.48C933.584 24.464 954.488 3.55999 983.968 3.55999ZM936.264 137.024H1031.14V427H936.264V137.024ZM1291.35 242.616C1278.49 223.856 1259.19 212.6 1234.54 212.6C1200.23 212.6 1176.65 241.008 1176.65 282.816C1176.65 325.16 1200.23 353.032 1234.54 353.032C1259.73 353.032 1279.56 342.848 1291.35 320.336L1361.57 360.536C1338.52 405.024 1291.35 430.216 1229.71 430.216C1140.2 430.216 1080.7 371.792 1080.7 283.352C1080.7 193.304 1140.74 133.808 1230.78 133.808C1289.21 133.808 1335.3 159 1360.5 202.416L1291.35 242.616ZM1524.98 133.808C1626.28 133.808 1677.74 201.88 1671.31 307.472H1469.77C1478.88 340.168 1503 358.392 1535.7 358.392C1560.36 358.392 1584.48 348.208 1603.77 328.912L1653.62 378.76C1624.14 411.992 1580.72 430.216 1527.12 430.216C1432.25 430.216 1373.83 371.792 1373.83 283.352C1373.83 193.304 1434.4 133.808 1524.98 133.808ZM1467.63 256.552H1579.12C1579.12 223.32 1557.68 200.808 1525.52 200.808C1494.43 200.808 1474.06 223.32 1467.63 256.552ZM1815.78 185.264C1835.61 152.032 1868.31 133.272 1909.05 133.272V220.64C1855.98 215.28 1820.61 238.864 1815.78 279.064V427H1720.37V137.024H1815.78V185.264Z" fill="#11344D"/>
</g>
<defs>
<clipPath id="clip0_3011_7">
<rect width="1990" height="588" fill="white"/>
</clipPath>
</defs>
</svg>
